<?xml version="1.0" encoding="utf-8"?>
<!-- Generator: Adobe Illustrator 23.0.2, SVG Export Plug-In . SVG Version: 6.00 Build 0)  -->
<svg version="1.1" id="Laag_1" xmlns="http://www.w3.org/2000/svg" xmlns:xlink="http://www.w3.org/1999/xlink" x="0px" y="0px"
	 viewBox="0 0 100 100" style="enable-background:new 0 0 100 100;" xml:space="preserve">
<style type="text/css">
	.st0{fill:#F49806;}
</style>
<g>
	<g>
		<g>
			<path class="st0" d="M90.23,8.59h-9.31V5.86C80.92,2.63,78.3,0,75.07,0s-5.86,2.63-5.86,5.86v2.73H36.39V5.86
				c0-3.23-2.63-5.86-5.86-5.86s-5.86,2.63-5.86,5.86v2.81c-0.17-0.05-0.34-0.07-0.52-0.07h-7.78c-5.38,0-9.77,4.38-9.77,9.77v33.27
				c0,1.08,0.87,1.95,1.95,1.95s1.95-0.87,1.95-1.95V28.71h70.41c1.08,0,1.95-0.87,1.95-1.95S82,24.8,80.92,24.8H10.51v-6.45
				c0-3.23,2.63-5.86,5.86-5.86h7.78c0.18,0,0.35-0.03,0.52-0.07v2.51c0,3.23,2.63,5.86,5.86,5.86s5.86-2.63,5.86-5.86V12.5h32.81
				v2.44c0,3.23,2.63,5.86,5.86,5.86s5.86-2.63,5.86-5.86V12.5h9.31c3.23,0,5.86,2.63,5.86,5.86v74.22c0,1.94-1.58,3.52-3.52,3.52
				s-3.52-1.58-3.52-3.52v-5.05c0-1.08-0.87-1.95-1.95-1.95H64.39c-1.08,0-1.95,0.87-1.95,1.95s0.87,1.95,1.95,1.95h20.77v3.1
				c0,1.27,0.32,2.47,0.89,3.52H7.42c-1.94,0-3.52-1.58-3.52-3.52v-3.1h43.72c1.08,0,1.95-0.87,1.95-1.95s-0.87-1.95-1.95-1.95
				H28.11c3.41-2.94,5.58-7.29,5.58-12.13c0-8.83-7.18-16.02-16.02-16.02S1.66,64.61,1.66,73.44c0,4.85,2.17,9.19,5.58,12.13H1.95
				C0.87,85.57,0,86.45,0,87.52v5.05C0,96.67,3.33,100,7.42,100h85.16c4.09,0,7.42-3.33,7.42-7.42V18.36
				C100,12.97,95.62,8.59,90.23,8.59z M32.49,14.94c0,1.08-0.88,1.95-1.95,1.95c-1.08,0-1.95-0.88-1.95-1.95V5.86
				c0-1.08,0.88-1.95,1.95-1.95c1.08,0,1.95,0.88,1.95,1.95V14.94z M77.02,14.94c0,1.08-0.88,1.95-1.95,1.95s-1.95-0.88-1.95-1.95
				V5.86c0-1.08,0.88-1.95,1.95-1.95s1.95,0.88,1.95,1.95V14.94z M5.56,73.44c0-6.68,5.43-12.11,12.11-12.11s12.11,5.43,12.11,12.11
				s-5.43,12.11-12.11,12.11S5.56,80.11,5.56,73.44z"/>
		</g>
	</g>
	<g>
		<g>
			<path class="st0" d="M91.47,25.38c-0.36-0.36-0.87-0.57-1.38-0.57c-0.51,0-1.02,0.21-1.38,0.57s-0.57,0.87-0.57,1.38
				s0.21,1.02,0.57,1.38c0.36,0.36,0.87,0.57,1.38,0.57c0.51,0,1.02-0.21,1.38-0.57c0.36-0.36,0.57-0.87,0.57-1.38
				S91.83,25.74,91.47,25.38z"/>
		</g>
	</g>
	<g>
		<g>
			<path class="st0" d="M58.33,86.14c-0.36-0.36-0.87-0.57-1.38-0.57c-0.51,0-1.02,0.21-1.38,0.57C55.21,86.51,55,87.01,55,87.52
				c0,0.52,0.21,1.02,0.57,1.38c0.36,0.36,0.87,0.57,1.38,0.57c0.51,0,1.02-0.21,1.38-0.57c0.36-0.37,0.57-0.87,0.57-1.38
				C58.9,87.01,58.69,86.51,58.33,86.14z"/>
		</g>
	</g>
	<g>
		<g>
			<path class="st0" d="M44.19,59.38c-4.09,0-7.42,3.33-7.42,7.42s3.33,7.42,7.42,7.42s7.42-3.33,7.42-7.42S48.28,59.38,44.19,59.38
				z M44.19,70.31c-1.94,0-3.52-1.58-3.52-3.52s1.58-3.52,3.52-3.52s3.52,1.58,3.52,3.52S46.13,70.31,44.19,70.31z"/>
		</g>
	</g>
	<g>
		<g>
			<path class="st0" d="M62.42,59.38c-4.09,0-7.42,3.33-7.42,7.42s3.33,7.42,7.42,7.42s7.42-3.33,7.42-7.42S66.51,59.38,62.42,59.38
				z M62.42,70.31c-1.94,0-3.52-1.58-3.52-3.52s1.58-3.52,3.52-3.52s3.52,1.58,3.52,3.52S64.36,70.31,62.42,70.31z"/>
		</g>
	</g>
	<g>
		<g>
			<path class="st0" d="M80.65,59.38c-4.09,0-7.42,3.33-7.42,7.42s3.33,7.42,7.42,7.42s7.42-3.33,7.42-7.42S84.74,59.38,80.65,59.38
				z M80.65,70.31c-1.94,0-3.52-1.58-3.52-3.52s1.58-3.52,3.52-3.52s3.52,1.58,3.52,3.52S82.59,70.31,80.65,70.31z"/>
		</g>
	</g>
	<g>
		<g>
			<path class="st0" d="M25.96,39.06c-4.09,0-7.42,3.33-7.42,7.42s3.33,7.42,7.42,7.42s7.42-3.33,7.42-7.42S30.05,39.06,25.96,39.06
				z M25.96,50c-1.94,0-3.52-1.58-3.52-3.52s1.58-3.52,3.52-3.52s3.52,1.58,3.52,3.52S27.9,50,25.96,50z"/>
		</g>
	</g>
	<g>
		<g>
			<path class="st0" d="M62.42,39.06c-4.09,0-7.42,3.33-7.42,7.42s3.33,7.42,7.42,7.42s7.42-3.33,7.42-7.42S66.51,39.06,62.42,39.06
				z M62.42,50c-1.94,0-3.52-1.58-3.52-3.52s1.58-3.52,3.52-3.52s3.52,1.58,3.52,3.52S64.36,50,62.42,50z"/>
		</g>
	</g>
	<g>
		<g>
			<path class="st0" d="M80.65,39.06c-4.09,0-7.42,3.33-7.42,7.42s3.33,7.42,7.42,7.42s7.42-3.33,7.42-7.42S84.74,39.06,80.65,39.06
				z M80.65,50c-1.94,0-3.52-1.58-3.52-3.52s1.58-3.52,3.52-3.52s3.52,1.58,3.52,3.52S82.59,50,80.65,50z"/>
		</g>
	</g>
	<g>
		<g>
			<path class="st0" d="M44.19,39.06c-4.09,0-7.42,3.33-7.42,7.42s3.33,7.42,7.42,7.42s7.42-3.33,7.42-7.42S48.28,39.06,44.19,39.06
				z M44.19,50c-1.94,0-3.52-1.58-3.52-3.52s1.58-3.52,3.52-3.52s3.52,1.58,3.52,3.52S46.13,50,44.19,50z"/>
		</g>
	</g>
	<g>
		<g>
			<path class="st0" d="M24.63,68.68c-0.76-0.76-2-0.76-2.76,0l-6.36,6.36l-2.17-2.17c-0.76-0.76-2-0.76-2.76,0
				c-0.76,0.76-0.76,2,0,2.76l3.55,3.55c0.37,0.37,0.86,0.57,1.38,0.57c0.52,0,1.01-0.21,1.38-0.57l7.74-7.74
				C25.39,70.68,25.39,69.44,24.63,68.68z"/>
		</g>
	</g>
</g>
</svg>
