<?xml version="1.0" encoding="utf-8"?>
<!-- Generator: Adobe Illustrator 23.0.2, SVG Export Plug-In . SVG Version: 6.00 Build 0)  -->
<svg version="1.1" id="Laag_1" xmlns="http://www.w3.org/2000/svg" xmlns:xlink="http://www.w3.org/1999/xlink" x="0px" y="0px"
	 viewBox="0 0 100 100" style="enable-background:new 0 0 100 100;" xml:space="preserve">
<style type="text/css">
	.st0{fill:#F49806;}
</style>
<g>
	<path class="st0" d="M13.67,100H77c2.76,0,5-2.24,5-5V16.67h6.67c1.84,0,3.33-1.49,3.33-3.33v-5c-0.01-4.6-3.73-8.33-8.33-8.33h-70
		c-2.76,0-5,2.24-5,5v90C8.67,97.76,10.91,100,13.67,100z M83.67,3.33c2.76,0,5,2.24,5,5v5H22v-5c-0.01-1.81-0.61-3.57-1.71-5H83.67
		z M12,5c0-0.92,0.75-1.67,1.67-1.67c2.76,0,5,2.24,5,5v5c0,1.84,1.49,3.33,3.33,3.33h56.67V95c0,0.92-0.75,1.67-1.67,1.67H13.67
		C12.75,96.67,12,95.92,12,95V5z"/>
	<path class="st0" d="M22,41.67h10c1.84,0,3.33-1.49,3.33-3.33v-1.67c0-0.92-0.75-1.67-1.67-1.67S32,35.75,32,36.67v1.67H22v-10h5
		c0.92,0,1.67-0.75,1.67-1.67c0-0.92-0.75-1.67-1.67-1.67h-5c-1.84,0-3.33,1.49-3.33,3.33v10C18.67,40.17,20.16,41.67,22,41.67z"/>
	<path class="st0" d="M22,65h10c1.84,0,3.33-1.49,3.33-3.33v-10c0-1.84-1.49-3.33-3.33-3.33H22c-1.84,0-3.33,1.49-3.33,3.33v10
		C18.67,63.51,20.16,65,22,65z M22,51.67h10v10H22V51.67z"/>
	<path class="st0" d="M22,88.33h10c1.84,0,3.33-1.49,3.33-3.33V75c0-1.84-1.49-3.33-3.33-3.33H22c-1.84,0-3.33,1.49-3.33,3.33v10
		C18.67,86.84,20.16,88.33,22,88.33z M22,75h10v10H22V75z"/>
	<path class="st0" d="M42,31.67h8.33c0.92,0,1.67-0.75,1.67-1.67c0-0.92-0.75-1.67-1.67-1.67H42c-0.92,0-1.67,0.75-1.67,1.67
		C40.33,30.92,41.08,31.67,42,31.67z"/>
	<path class="st0" d="M57,31.67h16.67c0.92,0,1.67-0.75,1.67-1.67c0-0.92-0.75-1.67-1.67-1.67H57c-0.92,0-1.67,0.75-1.67,1.67
		C55.33,30.92,56.08,31.67,57,31.67z"/>
	<path class="st0" d="M42,38.33h16.67c0.92,0,1.67-0.75,1.67-1.67c0-0.92-0.75-1.67-1.67-1.67H42c-0.92,0-1.67,0.75-1.67,1.67
		C40.33,37.59,41.08,38.33,42,38.33z"/>
	<path class="st0" d="M73.67,35h-8.33c-0.92,0-1.67,0.75-1.67,1.67c0,0.92,0.75,1.67,1.67,1.67h8.33c0.92,0,1.67-0.75,1.67-1.67
		C75.33,35.75,74.59,35,73.67,35z"/>
	<path class="st0" d="M42,55h8.33c0.92,0,1.67-0.75,1.67-1.67c0-0.92-0.75-1.67-1.67-1.67H42c-0.92,0-1.67,0.75-1.67,1.67
		C40.33,54.25,41.08,55,42,55z"/>
	<path class="st0" d="M73.67,51.67H57c-0.92,0-1.67,0.75-1.67,1.67c0,0.92,0.75,1.67,1.67,1.67h16.67c0.92,0,1.67-0.75,1.67-1.67
		C75.33,52.41,74.59,51.67,73.67,51.67z"/>
	<path class="st0" d="M42,61.67h16.67c0.92,0,1.67-0.75,1.67-1.67c0-0.92-0.75-1.67-1.67-1.67H42c-0.92,0-1.67,0.75-1.67,1.67
		C40.33,60.92,41.08,61.67,42,61.67z"/>
	<path class="st0" d="M73.67,58.33h-8.33c-0.92,0-1.67,0.75-1.67,1.67c0,0.92,0.75,1.67,1.67,1.67h8.33c0.92,0,1.67-0.75,1.67-1.67
		C75.33,59.08,74.59,58.33,73.67,58.33z"/>
	<path class="st0" d="M42,78.33h8.33c0.92,0,1.67-0.75,1.67-1.67c0-0.92-0.75-1.67-1.67-1.67H42c-0.92,0-1.67,0.75-1.67,1.67
		C40.33,77.59,41.08,78.33,42,78.33z"/>
	<path class="st0" d="M73.67,75H57c-0.92,0-1.67,0.75-1.67,1.67c0,0.92,0.75,1.67,1.67,1.67h16.67c0.92,0,1.67-0.75,1.67-1.67
		C75.33,75.75,74.59,75,73.67,75z"/>
	<path class="st0" d="M42,85h16.67c0.92,0,1.67-0.75,1.67-1.67c0-0.92-0.75-1.67-1.67-1.67H42c-0.92,0-1.67,0.75-1.67,1.67
		C40.33,84.25,41.08,85,42,85z"/>
	<path class="st0" d="M73.67,81.67h-8.33c-0.92,0-1.67,0.75-1.67,1.67c0,0.92,0.75,1.67,1.67,1.67h8.33c0.92,0,1.67-0.75,1.67-1.67
		C75.33,82.41,74.59,81.67,73.67,81.67z"/>
	<path class="st0" d="M26.51,30.49c-0.65-0.63-1.69-0.62-2.34,0.02c-0.64,0.64-0.65,1.68-0.02,2.34l3.33,3.33
		c0.31,0.31,0.74,0.49,1.18,0.49h0.14c0.49-0.04,0.93-0.29,1.22-0.69l8.33-11.67c0.35-0.48,0.41-1.12,0.16-1.66
		c-0.25-0.54-0.76-0.91-1.36-0.97s-1.17,0.21-1.52,0.69l-7.19,10.06L26.51,30.49z"/>
</g>
</svg>
