<?xml version="1.0" encoding="utf-8"?>
<!-- Generator: Adobe Illustrator 23.0.2, SVG Export Plug-In . SVG Version: 6.00 Build 0)  -->
<svg version="1.1" id="Laag_1" xmlns="http://www.w3.org/2000/svg" xmlns:xlink="http://www.w3.org/1999/xlink" x="0px" y="0px"
	 viewBox="0 0 100 100" style="enable-background:new 0 0 100 100;" xml:space="preserve">
<style type="text/css">
	.st0{fill:#F49806;}
</style>
<g>
	<g>
		<g>
			<path class="st0" d="M60.55,37.11c-1.08,0-1.95,0.88-1.95,1.95s0.88,1.95,1.95,1.95s1.95-0.88,1.95-1.95S61.62,37.11,60.55,37.11
				z"/>
		</g>
	</g>
	<g>
		<g>
			<path class="st0" d="M97.71,86.66L71.64,60.59c4.25-6.4,6.48-13.81,6.48-21.53C78.12,17.52,60.6,0,39.06,0S0,17.52,0,39.06
				s17.52,39.06,39.06,39.06c7.73,0,15.13-2.24,21.53-6.48l7.21,7.21c0,0,0,0,0,0l18.86,18.86c1.48,1.48,3.44,2.29,5.52,2.29
				s4.05-0.81,5.52-2.29c1.48-1.48,2.29-3.44,2.29-5.52S99.19,88.14,97.71,86.66z M59.68,67.52C59.68,67.53,59.67,67.53,59.68,67.52
				c-6.03,4.38-13.16,6.69-20.61,6.69c-19.39,0-35.16-15.77-35.16-35.16S19.68,3.91,39.06,3.91s35.16,15.77,35.16,35.16
				c0,7.46-2.31,14.58-6.69,20.61C65.33,62.69,62.69,65.33,59.68,67.52z M63.77,69.3c2.02-1.65,3.87-3.5,5.52-5.52l5.54,5.54
				c-1.69,1.99-3.53,3.84-5.52,5.52L63.77,69.3z M94.95,94.95c-0.74,0.74-1.72,1.14-2.76,1.14s-2.02-0.41-2.76-1.14L72.08,77.61
				c1.98-1.7,3.83-3.54,5.52-5.52l17.34,17.34c0.74,0.74,1.14,1.72,1.14,2.76S95.69,94.21,94.95,94.95z"/>
		</g>
	</g>
	<g>
		<g>
			<path class="st0" d="M39.06,7.81c-17.23,0-31.25,14.02-31.25,31.25s14.02,31.25,31.25,31.25s31.25-14.02,31.25-31.25
				S56.29,7.81,39.06,7.81z M39.06,66.41c-15.08,0-27.34-12.27-27.34-27.34s12.27-27.34,27.34-27.34s27.34,12.27,27.34,27.34
				S54.14,66.41,39.06,66.41z"/>
		</g>
	</g>
	<g>
		<g>
			<path class="st0" d="M60.95,30.68c-1.68-4.38-4.61-8.12-8.47-10.82c-3.95-2.77-8.59-4.23-13.42-4.23c-1.08,0-1.95,0.87-1.95,1.95
				s0.87,1.95,1.95,1.95c8.03,0,15.36,5.04,18.24,12.55c0.3,0.78,1.04,1.25,1.82,1.25c0.23,0,0.47-0.04,0.7-0.13
				C60.83,32.82,61.34,31.69,60.95,30.68z"/>
		</g>
	</g>
</g>
</svg>
